<svg width="19" height="19" viewBox="0 0 19 19" fill="none" xmlns="http://www.w3.org/2000/svg">
<g clip-path="url(#clip0_2_75)">
<path d="M2.96875 1.1875C2.65381 1.1875 2.35176 1.31261 2.12906 1.53531C1.90636 1.75801 1.78125 2.06006 1.78125 2.375V3.5625C1.78125 3.87744 1.90636 4.17949 2.12906 4.40219C2.35176 4.62489 2.65381 4.75 2.96875 4.75H3.5625V15.4375C3.5625 16.0674 3.81272 16.6715 4.25812 17.1169C4.70352 17.5623 5.30761 17.8125 5.9375 17.8125H13.0625C13.6924 17.8125 14.2965 17.5623 14.7419 17.1169C15.1873 16.6715 15.4375 16.0674 15.4375 15.4375V4.75H16.0312C16.3462 4.75 16.6482 4.62489 16.8709 4.40219C17.0936 4.17949 17.2188 3.87744 17.2188 3.5625V2.375C17.2188 2.06006 17.0936 1.75801 16.8709 1.53531C16.6482 1.31261 16.3462 1.1875 16.0312 1.1875H11.875C11.875 0.872555 11.7499 0.57051 11.5272 0.347811C11.3045 0.125111 11.0024 0 10.6875 0L8.3125 0C7.99756 0 7.69551 0.125111 7.47281 0.347811C7.25011 0.57051 7.125 0.872555 7.125 1.1875H2.96875ZM6.53125 5.9375C6.68872 5.9375 6.83975 6.00006 6.95109 6.11141C7.06244 6.22275 7.125 6.37378 7.125 6.53125V14.8438C7.125 15.0012 7.06244 15.1522 6.95109 15.2636C6.83975 15.3749 6.68872 15.4375 6.53125 15.4375C6.37378 15.4375 6.22275 15.3749 6.11141 15.2636C6.00006 15.1522 5.9375 15.0012 5.9375 14.8438V6.53125C5.9375 6.37378 6.00006 6.22275 6.11141 6.11141C6.22275 6.00006 6.37378 5.9375 6.53125 5.9375ZM9.5 5.9375C9.65747 5.9375 9.8085 6.00006 9.91985 6.11141C10.0312 6.22275 10.0938 6.37378 10.0938 6.53125V14.8438C10.0938 15.0012 10.0312 15.1522 9.91985 15.2636C9.8085 15.3749 9.65747 15.4375 9.5 15.4375C9.34253 15.4375 9.1915 15.3749 9.08016 15.2636C8.96881 15.1522 8.90625 15.0012 8.90625 14.8438V6.53125C8.90625 6.37378 8.96881 6.22275 9.08016 6.11141C9.1915 6.00006 9.34253 5.9375 9.5 5.9375ZM13.0625 6.53125V14.8438C13.0625 15.0012 12.9999 15.1522 12.8886 15.2636C12.7772 15.3749 12.6262 15.4375 12.4688 15.4375C12.3113 15.4375 12.1603 15.3749 12.0489 15.2636C11.9376 15.1522 11.875 15.0012 11.875 14.8438V6.53125C11.875 6.37378 11.9376 6.22275 12.0489 6.11141C12.1603 6.00006 12.3113 5.9375 12.4688 5.9375C12.6262 5.9375 12.7772 6.00006 12.8886 6.11141C12.9999 6.22275 13.0625 6.37378 13.0625 6.53125Z" fill="#F24E1E"/>
</g>
<defs>
<clipPath id="clip0_2_75">
<rect width="19" height="19" fill="white"/>
</clipPath>
</defs>
</svg>
